<svg width="41" height="39" viewBox="0 0 41 39" fill="none" xmlns="http://www.w3.org/2000/svg">
<rect x="0.934082" y="0.017334" width="40.0277" height="38.6127" rx="8" fill="#F9AA01"/>
<path d="M22.92 7.2797C22.106 6.60631 20.784 6.60631 19.9699 7.2797L9.55011 15.8991C8.73606 16.5725 8.73606 17.6661 9.55011 18.3394C10.3642 19.0128 11.6862 19.0128 12.5002 18.3394L19.3643 12.656V29.1837C19.3643 30.1372 20.2955 30.9076 21.4482 30.9076C22.6009 30.9076 23.5322 30.1372 23.5322 29.1837V12.656L30.3963 18.3341C31.2103 19.0075 32.5323 19.0075 33.3464 18.3341C34.1604 17.6607 34.1604 16.5671 33.3464 15.8937L22.9266 7.27431L22.92 7.2797Z" fill="#1B1426"/>
</svg>
