<svg width="41" height="40" viewBox="0 0 41 40" fill="none" xmlns="http://www.w3.org/2000/svg">
<rect x="0.198608" y="0.797607" width="40.0278" height="38.6127" rx="8" fill="#F9AA01"/>
<path d="M20.7156 13.434C17.166 13.434 14.3029 16.1965 14.3029 19.6214C14.3029 23.0463 17.166 25.8088 20.7156 25.8088C24.2652 25.8088 27.1283 23.0463 27.1283 19.6214C27.1283 16.1965 24.2652 13.434 20.7156 13.434ZM20.7156 23.644C18.4218 23.644 16.5465 21.84 16.5465 19.6214C16.5465 17.4028 18.4162 15.5988 20.7156 15.5988C23.0151 15.5988 24.8847 17.4028 24.8847 19.6214C24.8847 21.84 23.0095 23.644 20.7156 23.644V23.644ZM28.8864 13.1809C28.8864 13.9833 28.2167 14.6241 27.3907 14.6241C26.5591 14.6241 25.8949 13.9779 25.8949 13.1809C25.8949 12.3839 26.5646 11.7377 27.3907 11.7377C28.2167 11.7377 28.8864 12.3839 28.8864 13.1809ZM33.1336 14.6457C33.0387 12.7124 32.5811 11 31.1133 9.58912C29.651 8.17825 27.8762 7.73668 25.8726 7.63975C23.8076 7.52666 17.6181 7.52666 15.5531 7.63975C13.5551 7.73129 11.7803 8.17286 10.3124 9.58374C8.8446 10.9946 8.39253 12.707 8.29207 14.6403C8.17486 16.6327 8.17486 22.6047 8.29207 24.5972C8.38694 26.5304 8.8446 28.2428 10.3124 29.6537C11.7803 31.0646 13.5495 31.5062 15.5531 31.6031C17.6181 31.7162 23.8076 31.7162 25.8726 31.6031C27.8762 31.5115 29.651 31.07 31.1133 29.6537C32.5755 28.2428 33.0332 26.5304 33.1336 24.5972C33.2508 22.6047 33.2508 16.6381 33.1336 14.6457V14.6457ZM30.4658 26.735C30.0305 27.7905 29.1878 28.6036 28.0883 29.029C26.4419 29.6591 22.5351 29.5137 20.7156 29.5137C18.8962 29.5137 14.9838 29.6537 13.343 29.029C12.2491 28.609 11.4063 27.7959 10.9654 26.735C10.3124 25.1464 10.4631 21.3769 10.4631 19.6214C10.4631 17.8659 10.318 14.091 10.9654 12.5078C11.4007 11.4523 12.2435 10.6392 13.343 10.2138C14.9894 9.58374 18.8962 9.72913 20.7156 9.72913C22.5351 9.72913 26.4474 9.58912 28.0883 10.2138C29.1822 10.6338 30.0249 11.447 30.4658 12.5078C31.1188 14.0964 30.9681 17.8659 30.9681 19.6214C30.9681 21.3769 31.1188 25.1518 30.4658 26.735Z" fill="#1B1426"/>
</svg>
