<svg width="41" height="40" viewBox="0 0 41 40" fill="none" xmlns="http://www.w3.org/2000/svg">
<rect x="0.140991" y="0.797607" width="40.0278" height="38.6127" rx="8" fill="#F9AA01"/>
<path d="M31.377 7.55493H9.92792C8.94509 7.55493 8.14655 8.33602 8.14655 9.29488V29.948C8.14655 30.9068 8.94509 31.6879 9.92792 31.6879H31.377C32.3598 31.6879 33.1639 30.9068 33.1639 29.948V9.29488C33.1639 8.33602 32.3598 7.55493 31.377 7.55493ZM15.7076 28.2403H11.9997V16.7233H15.7132V28.2403H15.7076ZM13.8536 15.1504C12.6642 15.1504 11.7037 14.2184 11.7037 13.0764C11.7037 11.9344 12.6642 11.0025 13.8536 11.0025C15.0375 11.0025 16.0036 11.9344 16.0036 13.0764C16.0036 14.2238 15.0431 15.1504 13.8536 15.1504V15.1504ZM29.6068 28.2403H25.8988V22.638C25.8988 21.3021 25.8709 19.5837 23.9723 19.5837C22.0401 19.5837 21.7442 21.0381 21.7442 22.5411V28.2403H18.0362V16.7233H21.5934V18.2963H21.6436C22.1406 17.3913 23.3524 16.4378 25.1561 16.4378C28.9087 16.4378 29.6068 18.8242 29.6068 21.927V28.2403V28.2403Z" fill="#1B1426"/>
</svg>
